<mxfile host="app.diagrams.net" modified="2024-01-06T06:29:52.897Z" agent="Mozilla/5.0 (Windows NT 10.0; Win64; x64) AppleWebKit/537.36 (KHTML, like Gecko) Chrome/120.0.0.0 Safari/537.36" etag="n64LffVYlpwXvO1dW8S5" version="22.1.16" type="github">
  <diagram name="第 1 页" id="r-UbaikX7z6s84ak9cAS">
    <mxGraphModel dx="2261" dy="-423" grid="1" gridSize="10" guides="1" tooltips="1" connect="1" arrows="1" fold="1" page="1" pageScale="1" pageWidth="827" pageHeight="1169" math="0" shadow="0">
      <root>
        <mxCell id="0" />
        <mxCell id="1" parent="0" />
        <mxCell id="8anYgm16TTPK73hZd8IP-1" value="" style="rounded=0;whiteSpace=wrap;html=1;" vertex="1" parent="1">
          <mxGeometry x="-320" y="1400" width="640" height="280" as="geometry" />
        </mxCell>
        <mxCell id="8anYgm16TTPK73hZd8IP-2" value="IDF Module&lt;br style=&quot;font-size: 20px;&quot;&gt;(Microphone)" style="rounded=0;whiteSpace=wrap;html=1;fontFamily=Comic Sans MS;fontSize=20;" vertex="1" parent="1">
          <mxGeometry x="-300" y="1510" width="280" height="150" as="geometry" />
        </mxCell>
        <mxCell id="8anYgm16TTPK73hZd8IP-3" value="ODF Module&lt;br&gt;(Message Sender)" style="rounded=0;whiteSpace=wrap;html=1;fontFamily=Comic Sans MS;fontSize=20;" vertex="1" parent="1">
          <mxGeometry x="20" y="1510" width="280" height="150" as="geometry" />
        </mxCell>
        <mxCell id="8anYgm16TTPK73hZd8IP-4" value="Network Application" style="text;html=1;strokeColor=none;fillColor=none;align=center;verticalAlign=middle;whiteSpace=wrap;rounded=0;fontFamily=Times New Roman;fontSize=20;" vertex="1" parent="1">
          <mxGeometry x="-300" y="1430" width="600" height="60" as="geometry" />
        </mxCell>
        <mxCell id="8anYgm16TTPK73hZd8IP-5" style="edgeStyle=orthogonalEdgeStyle;rounded=0;orthogonalLoop=1;jettySize=auto;html=1;entryX=0;entryY=0.5;entryDx=0;entryDy=0;" edge="1" parent="1">
          <mxGeometry relative="1" as="geometry">
            <mxPoint x="-380" y="1584.5" as="sourcePoint" />
            <mxPoint x="-320" y="1584.5" as="targetPoint" />
          </mxGeometry>
        </mxCell>
        <mxCell id="8anYgm16TTPK73hZd8IP-6" value="Recorder" style="text;html=1;strokeColor=none;fillColor=none;align=center;verticalAlign=middle;whiteSpace=wrap;rounded=0;fontFamily=Times New Roman;fontSize=20;" vertex="1" parent="1">
          <mxGeometry x="-480" y="1560" width="97" height="50" as="geometry" />
        </mxCell>
        <mxCell id="8anYgm16TTPK73hZd8IP-7" style="edgeStyle=orthogonalEdgeStyle;rounded=0;orthogonalLoop=1;jettySize=auto;html=1;exitX=1;exitY=0.5;exitDx=0;exitDy=0;" edge="1" parent="1" source="8anYgm16TTPK73hZd8IP-2">
          <mxGeometry relative="1" as="geometry">
            <mxPoint x="-56.5" y="1580" as="sourcePoint" />
            <mxPoint x="20" y="1585" as="targetPoint" />
          </mxGeometry>
        </mxCell>
        <mxCell id="8anYgm16TTPK73hZd8IP-8" style="edgeStyle=orthogonalEdgeStyle;rounded=0;orthogonalLoop=1;jettySize=auto;html=1;" edge="1" parent="1">
          <mxGeometry relative="1" as="geometry">
            <mxPoint x="320" y="1584.5" as="sourcePoint" />
            <mxPoint x="390" y="1585" as="targetPoint" />
            <Array as="points">
              <mxPoint x="391" y="1585" />
            </Array>
          </mxGeometry>
        </mxCell>
        <mxCell id="8anYgm16TTPK73hZd8IP-9" value="linebot" style="text;html=1;strokeColor=none;fillColor=none;align=center;verticalAlign=middle;whiteSpace=wrap;rounded=0;fontFamily=Times New Roman;fontSize=20;" vertex="1" parent="1">
          <mxGeometry x="395" y="1560" width="80" height="50" as="geometry" />
        </mxCell>
      </root>
    </mxGraphModel>
  </diagram>
</mxfile>
